<svg width="150" height="150" viewBox="0 0 150 150" fill="none" xmlns="http://www.w3.org/2000/svg">
<rect width="150" height="150" rx="10" fill="#1BB8DB"/>
<path d="M107.15 118.4L81.35 120.35L63.5 121.85L54.2 122.6C53.4 122.6 52.65 122.1 51.95 121.1C51.35 120.1 51.05 119.15 51.05 118.25C51.05 117.55 51.25 117.05 51.65 116.75C52.15 116.35 52.65 116.1 53.15 116C53.75 115.8 54.15 115.65 54.35 115.55C54.45 110.15 54.5 97.55 54.5 77.75C54.5 63.15 53.9 51.85 52.7 43.85C51.6 35.75 51.05 31.4 51.05 30.8C51.05 29.4 51.55 28.3 52.55 27.5C53.65 26.7 54.75 26.3 55.85 26.3C56.55 26.3 57.1 26.6 57.5 27.2C57.9 27.7 58.2 28.55 58.4 29.75C59.4 33.15 60.15 39.4 60.65 48.5C61.25 57.6 61.55 67.1 61.55 77C61.55 85.4 61.5 93.2 61.4 100.4C61.3 107.6 61.25 112.45 61.25 114.95C62.55 114.85 65.05 114.7 68.75 114.5C72.45 114.2 76.25 113.9 80.15 113.6C85.95 112.9 92.5 111.85 99.8 110.45C105.7 109.35 109.25 108.8 110.45 108.8C111.55 108.8 112.25 109.3 112.55 110.3C112.85 111.3 113 112.5 113 113.9C113 115.2 112.4 116.25 111.2 117.05C110.1 117.85 108.75 118.3 107.15 118.4Z" fill="white"/>
<rect x="80.5" y="25.5" width="53" height="33" rx="4.5" fill="#1BB8DB" stroke="white"/>
<circle cx="107" cy="42" r="10.5" fill="#1BB8DB" stroke="white"/>
<path d="M110 42L105.5 44.5981V39.4019L110 42Z" fill="white"/>
<path d="M86 59H93L89.5 65L86 59Z" fill="white"/>
<rect x="28" y="124" width="94" height="2" rx="1" fill="#1C91AB"/>
</svg>
